<svg width="45" height="45" viewBox="0 0 45 45" fill="none" xmlns="http://www.w3.org/2000/svg">
<g id="Cart">
<path id="Vector" d="M5.625 5.625H6.1275C7.01625 5.625 7.46062 5.625 7.82437 5.78438C8.14312 5.92688 8.41688 6.15375 8.61188 6.4425C8.83688 6.76875 8.9175 7.20563 9.07688 8.07563L13.125 30H32.6663C33.5156 30 33.9413 30 34.2938 29.85C34.6044 29.7172 34.8733 29.5027 35.0719 29.2294C35.2969 28.92 35.3925 28.5075 35.5838 27.6806V27.675L38.5275 14.925C38.8163 13.6706 38.9625 13.0406 38.8031 12.5475C38.6621 12.1152 38.369 11.7487 37.9781 11.5163C37.5356 11.25 36.8925 11.25 35.6063 11.25H10.3125M33.75 39.375C33.2527 39.375 32.7758 39.1775 32.4242 38.8258C32.0725 38.4742 31.875 37.9973 31.875 37.5C31.875 37.0027 32.0725 36.5258 32.4242 36.1742C32.7758 35.8225 33.2527 35.625 33.75 35.625C34.2473 35.625 34.7242 35.8225 35.0758 36.1742C35.4275 36.5258 35.625 37.0027 35.625 37.5C35.625 37.9973 35.4275 38.4742 35.0758 38.8258C34.7242 39.1775 34.2473 39.375 33.75 39.375ZM15 39.375C14.5027 39.375 14.0258 39.1775 13.6742 38.8258C13.3225 38.4742 13.125 37.9973 13.125 37.5C13.125 37.0027 13.3225 36.5258 13.6742 36.1742C14.0258 35.8225 14.5027 35.625 15 35.625C15.4973 35.625 15.9742 35.8225 16.3258 36.1742C16.6775 36.5258 16.875 37.0027 16.875 37.5C16.875 37.9973 16.6775 38.4742 16.3258 38.8258C15.9742 39.1775 15.4973 39.375 15 39.375Z" stroke="#F0F3FD" stroke-width="4" stroke-linecap="round" stroke-linejoin="round"/>
</g>
</svg>
