<svg width="45" height="45" viewBox="0 0 45 45" fill="none" xmlns="http://www.w3.org/2000/svg">
<g opacity="0.8">
<path d="M24.375 41.25H16.875C16.3777 41.25 15.9008 41.0525 15.5492 40.7009C15.1975 40.3492 15 39.8723 15 39.375V27.75H11.25C10.7527 27.75 10.2758 27.5525 9.92418 27.2009C9.57254 26.8492 9.375 26.3723 9.375 25.875V19.125C9.375 18.6278 9.57254 18.1508 9.92418 17.7992C10.2758 17.4476 10.7527 17.25 11.25 17.25H15V14.0625C15.1314 11.2057 16.3887 8.51712 18.4968 6.58464C20.605 4.65216 23.3925 3.63302 26.25 3.75004H31.875C32.3723 3.75004 32.8492 3.94758 33.2008 4.29921C33.5525 4.65084 33.75 5.12776 33.75 5.62504V12.375C33.75 12.8723 33.5525 13.3492 33.2008 13.7009C32.8492 14.0525 32.3723 14.25 31.875 14.25H26.25V17.25H31.875C32.1645 17.2478 32.4506 17.3127 32.7108 17.4396C32.9711 17.5665 33.1984 17.7519 33.375 17.9813C33.5497 18.2142 33.6677 18.4845 33.7198 18.7709C33.7718 19.0573 33.7565 19.3518 33.675 19.6313L31.8 26.3813C31.6866 26.7869 31.4399 27.1424 31.0998 27.3907C30.7597 27.639 30.3458 27.7656 29.925 27.75H26.25V39.375C26.25 39.8723 26.0525 40.3492 25.7008 40.7009C25.3492 41.0525 24.8723 41.25 24.375 41.25ZM18.75 37.5H22.5V25.875C22.5 25.3778 22.6975 24.9008 23.0492 24.5492C23.4008 24.1976 23.8777 24 24.375 24H28.575L29.4 21H24.375C23.8777 21 23.4008 20.8025 23.0492 20.4509C22.6975 20.0992 22.5 19.6223 22.5 19.125V14.0625C22.5481 13.1008 22.9644 12.1945 23.6625 11.5313C24.3606 10.8681 25.2871 10.4988 26.25 10.5H30V7.50004H26.25C24.3878 7.38658 22.5559 8.01197 21.1518 9.24053C19.7478 10.4691 18.8847 12.2017 18.75 14.0625V19.125C18.75 19.6223 18.5525 20.0992 18.2008 20.4509C17.8492 20.8025 17.3723 21 16.875 21H13.125V24H16.875C17.3723 24 17.8492 24.1976 18.2008 24.5492C18.5525 24.9008 18.75 25.3778 18.75 25.875V37.5Z" fill="#F0F3FD"/>
</g>
</svg>
