<svg width="45" height="45" viewBox="0 0 45 45" fill="none" xmlns="http://www.w3.org/2000/svg">
<g opacity="0.8">
<path d="M37.5 41.25H34.3688C33.3742 41.25 32.4204 40.8549 31.7171 40.1517C31.0138 39.4484 30.6188 38.4946 30.6188 37.5V27.4313C30.6355 27.0364 30.5161 26.6477 30.2806 26.3303C30.0451 26.0129 29.7078 25.786 29.325 25.6875C29.1023 25.6536 28.8749 25.6678 28.6582 25.7293C28.4415 25.7908 28.2405 25.898 28.0688 26.0438C27.892 26.1938 27.7501 26.3805 27.6529 26.591C27.5558 26.8015 27.5057 27.0307 27.5063 27.2625V37.5C27.5063 38.4946 27.1112 39.4484 26.4079 40.1517C25.7046 40.8549 24.7508 41.25 23.7563 41.25H20.625C19.6304 41.25 18.6766 40.8549 17.9734 40.1517C17.2701 39.4484 16.875 38.4946 16.875 37.5V27.2625C16.875 24.0302 18.159 20.9302 20.4446 18.6446C22.7302 16.359 25.8302 15.075 29.0625 15.075C32.2948 15.075 35.3948 16.359 37.6804 18.6446C39.966 20.9302 41.25 24.0302 41.25 27.2625V37.5C41.25 38.4946 40.8549 39.4484 40.1517 40.1517C39.4484 40.8549 38.4946 41.25 37.5 41.25ZM29.0625 21.9188C29.356 21.9002 29.6503 21.9002 29.9438 21.9188C31.2026 22.1609 32.3359 22.8385 33.1451 23.8328C33.9542 24.8271 34.3874 26.0745 34.3688 27.3563V37.5H37.5V27.2625C37.5 25.0247 36.6111 22.8786 35.0287 21.2963C33.4464 19.714 31.3003 18.825 29.0625 18.825C26.8247 18.825 24.6786 19.714 23.0963 21.2963C21.514 22.8786 20.625 25.0247 20.625 27.2625V37.5H23.7563V27.2625C23.7562 25.8517 24.3141 24.4982 25.3081 23.4971C26.3022 22.496 27.6518 21.9287 29.0625 21.9188ZM11.25 41.25H7.5C6.50544 41.25 5.55161 40.8549 4.84835 40.1517C4.14509 39.4484 3.75 38.4946 3.75 37.5V18.75C3.75 17.7554 4.14509 16.8016 4.84835 16.0984C5.55161 15.3951 6.50544 15 7.5 15H11.25C12.2446 15 13.1984 15.3951 13.9017 16.0984C14.6049 16.8016 15 17.7554 15 18.75V37.5C15 38.4946 14.6049 39.4484 13.9017 40.1517C13.1984 40.8549 12.2446 41.25 11.25 41.25ZM7.5 18.75V37.5H11.25V18.75H7.5ZM9.375 13.125C8.26248 13.125 7.17495 12.7951 6.24992 12.177C5.32489 11.5589 4.60392 10.6804 4.17818 9.6526C3.75244 8.62476 3.64104 7.49376 3.85809 6.40262C4.07513 5.31148 4.61086 4.3092 5.39753 3.52253C6.1842 2.73586 7.18648 2.20013 8.27762 1.98309C9.36876 1.76604 10.4998 1.87744 11.5276 2.30318C12.5554 2.72892 13.4339 3.44989 14.052 4.37492C14.6701 5.29995 15 6.38748 15 7.5C15 8.99185 14.4074 10.4226 13.3525 11.4775C12.2976 12.5324 10.8668 13.125 9.375 13.125ZM9.375 5.625C9.00416 5.625 8.64165 5.73497 8.33331 5.941C8.02497 6.14703 7.78464 6.43986 7.64273 6.78247C7.50081 7.12508 7.46368 7.50208 7.53603 7.8658C7.60838 8.22951 7.78695 8.5636 8.04918 8.82583C8.3114 9.08805 8.64549 9.26663 9.00921 9.33898C9.37292 9.41132 9.74992 9.37419 10.0925 9.23228C10.4351 9.09036 10.728 8.85004 10.934 8.5417C11.14 8.23335 11.25 7.87084 11.25 7.5C11.25 7.00272 11.0525 6.52581 10.7008 6.17418C10.3492 5.82255 9.87228 5.625 9.375 5.625Z" fill="#F0F3FD"/>
</g>
</svg>
