<svg width="45" height="45" viewBox="0 0 45 45" fill="none" xmlns="http://www.w3.org/2000/svg">
<g opacity="0.8">
<path d="M15.9562 37.5001H15.8062C12.7844 37.4736 9.80628 36.7755 7.08749 35.4564C6.58738 35.2214 6.1756 34.8326 5.91243 34.3467C5.64927 33.8609 5.54854 33.3036 5.62499 32.7563C5.70813 32.2054 5.96321 31.6948 6.35381 31.2975C6.74441 30.9002 7.25056 30.6364 7.79999 30.5439C9.48488 30.3191 11.1058 29.7511 12.5625 28.8751C10.0334 26.8978 8.0864 24.273 6.92777 21.2791C5.76915 18.2852 5.44208 15.0336 5.98124 11.8688C6.05434 11.3676 6.26992 10.8979 6.60233 10.5156C6.93473 10.1333 7.36997 9.8546 7.85624 9.7126C8.32933 9.56402 8.83564 9.55767 9.3123 9.69434C9.78897 9.83101 10.215 10.1047 10.5375 10.4814C11.6325 11.9172 13.0085 13.1149 14.5817 14.0014C16.1548 14.8879 17.8921 15.4446 19.6875 15.6376C19.7732 13.4286 20.7226 11.3414 22.3312 9.8251C23.1345 9.05593 24.0828 8.45431 25.1209 8.0553C26.159 7.6563 27.2661 7.46788 28.3777 7.50104C29.4894 7.5342 30.5833 7.78826 31.5958 8.24843C32.6082 8.7086 33.519 9.36567 34.275 10.1813C34.4719 10.3555 34.7167 10.4664 34.9774 10.4999C35.2382 10.5333 35.503 10.4877 35.7375 10.3689C36.1845 10.158 36.6824 10.0786 37.1728 10.14C37.6633 10.2014 38.1262 10.4009 38.5075 10.7154C38.8888 11.0299 39.1729 11.4464 39.3265 11.9162C39.4801 12.386 39.4969 12.8898 39.375 13.3689C38.9425 15.1503 38.1231 16.8147 36.975 18.2438C36.7219 23.5778 34.3704 28.5953 30.433 32.2025C26.4957 35.8097 21.2919 37.714 15.9562 37.5001ZM15.9562 33.7501H16.1062C18.2862 33.8251 20.4594 33.4666 22.4999 32.6954C24.5403 31.9242 26.4073 30.7556 27.9927 29.2574C29.5781 27.7592 30.8503 25.9612 31.7356 23.9676C32.6209 21.9741 33.1016 19.8246 33.15 17.6438C33.181 17.0462 33.4274 16.48 33.8437 16.0501C34.3011 15.4712 34.6911 14.8421 35.0062 14.1751C34.3308 14.1764 33.6626 14.0351 33.0455 13.7605C32.4284 13.4858 31.8762 13.084 31.425 12.5813C30.9911 12.1511 30.4758 11.8118 29.9091 11.5832C29.3425 11.3546 28.7359 11.2414 28.125 11.2501C27.5079 11.2341 26.8938 11.3402 26.3178 11.5622C25.7419 11.7843 25.2154 12.1178 24.7687 12.5438C24.1661 13.1157 23.7242 13.8358 23.4873 14.6322C23.2503 15.4285 23.2267 16.273 23.4187 17.0813L23.9062 19.2188L21.7125 19.3688C19.4645 19.5522 17.2036 19.2447 15.0863 18.4677C12.9689 17.6906 11.0458 16.4627 9.44999 14.8688C9.38155 17.3371 9.99899 19.776 11.2337 21.9143C12.4683 24.0526 14.2719 25.8067 16.4437 26.9814L18.225 27.9939L17.0437 29.6814C15.7663 31.3567 14.016 32.6107 12.0187 33.2814C13.2999 33.6025 14.6167 33.76 15.9375 33.7501H15.9562Z" fill="#F0F3FD"/>
</g>
</svg>
