<svg width="35" height="27" viewBox="0 0 35 27" fill="none" xmlns="http://www.w3.org/2000/svg">
<g id="evaMenuOutline0">
<g id="evaMenuOutline1">
<g id="evaMenuOutline2">
<path id="Vector" d="M30.2569 22.7386L8.91115 1.3928C8.21552 0.697183 7.0877 0.697184 6.39208 1.39281L6.2595 1.52539C5.56387 2.22101 5.56387 3.34883 6.25949 4.04445L27.6053 25.3902C28.3009 26.0859 29.4287 26.0859 30.1243 25.3902L30.2569 25.2577C30.9526 24.562 30.9526 23.4342 30.2569 22.7386Z" fill="#F0F3FD"/>
<path id="Vector_2" d="M27.847 1.25958L6.50123 22.6054C5.80561 23.301 5.80561 24.4288 6.50123 25.1244L6.63382 25.257C7.32944 25.9526 8.45726 25.9526 9.15288 25.257L30.4987 3.91123C31.1943 3.21561 31.1943 2.08778 30.4987 1.39216L30.3661 1.25958C29.6705 0.563957 28.5426 0.563958 27.847 1.25958Z" fill="#F0F3FD"/>
</g>
</g>
</g>
</svg>
