<svg width="45" height="45" viewBox="0 0 45 45" fill="none" xmlns="http://www.w3.org/2000/svg">
<g opacity="0.8">
<path d="M30.45 41.25C29.9527 41.25 29.4758 41.0525 29.1242 40.7008C28.7726 40.3492 28.575 39.8723 28.575 39.375V34.5C28.6333 33.9392 28.5733 33.3725 28.3989 32.8364C28.2245 32.3002 27.9395 31.8067 27.5625 31.3875C27.3291 31.1343 27.1699 30.8218 27.1024 30.4841C27.0349 30.1464 27.0616 29.7967 27.1798 29.4732C27.2979 29.1497 27.5029 28.8651 27.7722 28.6504C28.0414 28.4357 28.3646 28.2994 28.7063 28.2563C33.2813 27.7125 37.5 26.25 37.5 18.3188C37.5015 16.8376 37.0643 15.3893 36.2438 14.1563C35.4866 13.0212 35.2101 11.6323 35.475 10.2938C35.644 9.4206 35.644 8.52315 35.475 7.65C34.071 8.12471 32.7491 8.81414 31.5563 9.69375C31.3307 9.8539 31.0726 9.96217 30.8003 10.0108C30.528 10.0594 30.2483 10.0472 29.9813 9.975C26.5975 9.01886 23.015 9.01886 19.6313 9.975C19.3642 10.0472 19.0846 10.0594 18.8123 10.0108C18.54 9.96217 18.2818 9.8539 18.0563 9.69375C16.8561 8.80395 15.5202 8.11381 14.1 7.65C13.9217 8.52223 13.9217 9.42152 14.1 10.2938C14.3458 11.6491 14.0568 13.047 13.2938 14.1938C12.4768 15.4354 12.0401 16.8887 12.0375 18.375C12.0375 25.6688 15.5625 27.6188 20.85 28.2938C21.196 28.3367 21.5232 28.4752 21.7948 28.6938C22.0664 28.9124 22.2716 29.2024 22.3875 29.5312C22.4965 29.8503 22.5175 30.1929 22.4482 30.5228C22.3789 30.8528 22.2219 31.158 21.9938 31.4062C21.6291 31.7961 21.3492 32.2573 21.1717 32.7607C20.9942 33.2641 20.923 33.7989 20.9625 34.3312V39.375C20.9625 39.8723 20.765 40.3492 20.4133 40.7008C20.0617 41.0525 19.5848 41.25 19.0875 41.25C18.5902 41.25 18.1133 41.0525 17.7617 40.7008C17.4101 40.3492 17.2125 39.8723 17.2125 39.375V38.3063C15.3701 38.5181 13.5038 38.2712 11.7799 37.5876C10.0559 36.9039 8.52769 35.8046 7.33126 34.3875C6.71627 33.7058 5.97841 33.1461 5.15626 32.7375C4.91742 32.6759 4.69304 32.5679 4.49594 32.4197C4.29883 32.2714 4.13286 32.0858 4.0075 31.8733C3.88215 31.6609 3.79985 31.4259 3.76532 31.1817C3.73079 30.9375 3.7447 30.6888 3.80626 30.45C3.86782 30.2112 3.97582 29.9868 4.12409 29.7897C4.27236 29.5926 4.458 29.4266 4.67042 29.3012C4.88283 29.1759 5.11786 29.0936 5.36207 29.0591C5.60629 29.0245 5.85492 29.0384 6.09376 29.1C7.5361 29.6254 8.82489 30.5018 9.84376 31.65C11.7188 33.525 13.5938 35.175 17.1563 34.5C17.0936 33.4933 17.2405 32.4846 17.5875 31.5375C13.725 30.5625 8.21251 27.7875 8.21251 18.4125C8.20757 16.1918 8.85997 14.0193 10.0875 12.1688C10.3155 11.8271 10.4028 11.4107 10.3313 11.0063C9.95238 8.98233 10.1673 6.892 10.95 4.9875C11.0564 4.73356 11.2173 4.50615 11.4215 4.32144C11.6256 4.13673 11.868 3.99924 12.1313 3.91875C12.7688 3.73125 15.0563 3.35625 19.3875 6.16875C22.8937 5.32501 26.5501 5.32501 30.0563 6.16875C34.3875 3.35625 36.675 3.7125 37.2938 3.91875C37.557 3.99924 37.7994 4.13673 38.0035 4.32144C38.2077 4.50615 38.3687 4.73356 38.475 4.9875C39.2593 6.89819 39.4742 8.99495 39.0938 11.025C39.0554 11.2079 39.0539 11.3966 39.0893 11.5801C39.1247 11.7636 39.1963 11.9383 39.3 12.0938C40.5311 13.9496 41.1837 16.1292 41.175 18.3563C41.175 27.8625 35.7 30.6188 31.8 31.4813C32.1436 32.4874 32.2838 33.5517 32.2125 34.6125V39.375C32.2134 39.8534 32.0313 40.314 31.7037 40.6626C31.376 41.0112 30.9275 41.2213 30.45 41.25Z" fill="#F0F3FD"/>
</g>
</svg>
