<svg width="45" height="45" viewBox="0 0 45 45" fill="none" xmlns="http://www.w3.org/2000/svg">
<g opacity="0.8">
<path d="M22.5 41.2501H21.6937C16.9779 40.9801 12.5305 38.9677 9.21482 35.6035C5.89909 32.2392 3.95149 27.7631 3.75 23.0438C3.65446 19.8627 4.37023 16.7095 5.8299 13.8814C7.28957 11.0533 9.4451 8.64327 12.0935 6.87832C14.7418 5.11337 17.7959 4.05158 20.968 3.79297C24.14 3.53435 27.3257 4.08743 30.225 5.40009C30.5614 5.55844 30.8626 5.78278 31.1106 6.05978C31.3586 6.33678 31.5484 6.6608 31.6687 7.01259C31.7873 7.36879 31.8318 7.74544 31.7995 8.11944C31.7673 8.49345 31.659 8.85693 31.4813 9.18759L29.0625 13.6501C28.7426 14.2414 28.2136 14.6921 27.5791 14.914C26.9445 15.1359 26.2499 15.1131 25.6312 14.8501C24.0718 14.2373 22.3653 14.1026 20.7291 14.4632C19.0928 14.8239 17.601 15.6635 16.4438 16.8751C15.6688 17.7124 15.0755 18.7011 14.7012 19.7788C14.3268 20.8566 14.1796 22.0002 14.2687 23.1376C14.3805 24.2369 14.7139 25.3021 15.2489 26.2689C15.7838 27.2357 16.5092 28.084 17.3813 28.7626C18.2741 29.5006 19.3088 30.0478 20.4214 30.3703C21.534 30.6927 22.7009 30.7837 23.85 30.6376C24.8284 30.5062 25.7699 30.1775 26.6176 29.6715C27.4652 29.1655 28.2013 28.4927 28.7812 27.6938H23.3437C22.6259 27.6939 21.9372 27.41 21.4279 26.9042C20.9186 26.3984 20.6299 25.7116 20.625 24.9938V19.9688C20.625 19.2478 20.9114 18.5563 21.4213 18.0464C21.9312 17.5365 22.6227 17.2501 23.3437 17.2501H38.5312C39.2476 17.2549 39.9335 17.5404 40.4417 18.0451C40.95 18.5499 41.2402 19.2338 41.25 19.9501V23.4751C41 28.277 38.9147 32.7993 35.4251 36.1074C31.9355 39.4155 27.3084 41.2566 22.5 41.2501ZM22.5 7.50009C20.4917 7.49918 18.5037 7.90157 16.6539 8.68337C14.804 9.46517 13.13 10.6105 11.7311 12.0514C10.3321 13.4923 9.23681 15.1994 8.51001 17.0715C7.78321 18.9437 7.43975 20.9427 7.5 22.9501C7.66125 26.7221 9.21828 30.2997 11.8688 32.9884C14.5194 35.6771 18.0744 37.285 21.8437 37.5001C25.8013 37.6787 29.6688 36.2844 32.602 33.6217C35.5353 30.9589 37.296 27.2439 37.5 23.2876V21.0001H24.375V23.9626H34.3312L33.5625 26.4001C32.9558 28.4691 31.7672 30.3202 30.1384 31.733C28.5095 33.1457 26.509 34.0607 24.375 34.3688C22.7249 34.6082 21.0434 34.5107 19.4321 34.0821C17.8208 33.6535 16.3131 32.9027 15 31.8751C13.7062 30.8601 12.6374 29.5874 11.8615 28.1376C11.0855 26.6878 10.6193 25.0925 10.4924 23.4531C10.3654 21.8136 10.5806 20.1656 11.1241 18.6136C11.6677 17.0617 12.5278 15.6396 13.65 14.4376C15.2194 12.7461 17.2355 11.5332 19.4652 10.9393C21.6949 10.3454 24.0471 10.3946 26.25 11.0813L27.6938 8.40009C26.0302 7.79198 24.2711 7.48716 22.5 7.50009Z" fill="#F0F3FD"/>
</g>
</svg>
