<svg width="171" height="153" viewBox="0 0 171 153" fill="none" xmlns="http://www.w3.org/2000/svg">
<g filter="url(#filter0_i_83_120)">
<path d="M138.028 40.6363L152.248 26.9295L152.248 40.6363L138.028 40.6363Z" fill="#B45C00"/>
</g>
<g filter="url(#filter1_i_83_120)">
<path d="M37.4999 143.5L49.956 130.645L49.9999 143.5L37.4999 143.5Z" fill="#B45C00"/>
</g>
<g filter="url(#filter2_di_83_120)">
<path d="M37.4611 94.8952L103.917 26.9295L129.89 26.9295L152.211 26.9295L37.4611 143.5L37.4611 119.061L37.4611 94.8952Z" fill="#FF5C00"/>
</g>
<g filter="url(#filter3_d_83_120)">
<path d="M63.1155 94.803L66.1136 97.8012C66.3399 98.0274 66.4672 98.2584 66.4954 98.4941C66.5332 98.7204 66.5002 98.9985 66.3965 99.3285C66.2833 99.7056 66.0429 100.172 65.6752 100.729C65.3169 101.275 64.9068 101.78 64.4448 102.242C63.5492 103.137 62.5922 103.783 61.574 104.179C60.5558 104.556 59.5139 104.618 58.4486 104.363C57.3738 104.099 56.3178 103.449 55.2807 102.411C54.2814 101.412 53.6544 100.37 53.3998 99.2861C53.1453 98.2018 53.1924 97.1459 53.5412 96.1182C53.8995 95.0811 54.4982 94.1431 55.3373 93.304C55.903 92.7383 56.4545 92.3093 56.9919 92.017C57.5388 91.7153 58.0243 91.5503 58.4486 91.522C58.8823 91.4843 59.217 91.5833 59.4527 91.819C59.6318 91.9982 59.7402 92.2103 59.7779 92.4554C59.8251 92.6911 59.8251 92.908 59.7779 93.106C59.3631 93.2002 58.9153 93.3558 58.4344 93.5727C57.9442 93.7801 57.4445 94.1383 56.9354 94.6475C56.3885 95.1943 56.0114 95.8071 55.804 96.4859C55.606 97.1553 55.6154 97.8436 55.8323 98.5507C56.0397 99.2484 56.4687 99.9225 57.1192 100.573C57.8169 101.271 58.5146 101.723 59.2122 101.931C59.9005 102.129 60.5699 102.119 61.2204 101.902C61.871 101.686 62.4697 101.304 63.0165 100.757C63.2899 100.483 63.5162 100.21 63.6953 99.9366C63.8839 99.6538 64.0111 99.4134 64.0771 99.2154L62.069 97.2072L60.2305 99.0457C60.1268 99.0174 59.9901 98.9655 59.8204 98.8901C59.6507 98.7958 59.4998 98.6827 59.3678 98.5507C59.1133 98.2961 58.986 98.0557 58.986 97.8294C58.9765 97.5937 59.0708 97.3769 59.2688 97.1789L61.6447 94.803C61.8615 94.5862 62.102 94.4777 62.3659 94.4777C62.6394 94.4683 62.8892 94.5767 63.1155 94.803ZM69.0604 88.349L70.2342 87.1752C70.7904 86.619 71.111 86.0533 71.1958 85.4782C71.2807 84.903 71.0827 84.3751 70.6019 83.8942C70.1305 83.4228 69.6072 83.2296 69.0321 83.3144C68.457 83.3993 67.8489 83.7622 67.2077 84.4034C67.0192 84.5919 66.8448 84.7852 66.6845 84.9832C66.5148 85.1717 66.3686 85.3556 66.2461 85.5347L69.0604 88.349ZM71.7615 88.448L68.6785 91.531L63.8278 86.6802C63.6581 86.5105 63.5732 86.3314 63.5732 86.1428C63.5826 85.9448 63.6392 85.7374 63.7429 85.5206C63.9503 85.1246 64.2332 84.7003 64.5915 84.2478C64.9591 83.7858 65.3551 83.3427 65.7794 82.9184C67.0239 81.6739 68.2118 81.0045 69.3432 80.9102C70.4746 80.7971 71.4881 81.1884 72.3838 82.084C72.9495 82.6497 73.303 83.2956 73.4444 84.0215C73.5953 84.7381 73.534 85.4782 73.2606 86.2418C72.9777 86.9961 72.4781 87.7315 71.7615 88.448ZM71.0686 88.2359L72.1575 86.2701C72.7043 86.3455 73.2606 86.421 73.8263 86.4964C74.392 86.553 74.9388 86.619 75.4668 86.6944C75.9947 86.7509 76.4708 86.8122 76.8951 86.8782C77.3288 86.9348 77.6776 86.9914 77.9416 87.0479C78.1113 87.3496 78.1679 87.6608 78.1113 87.9813C78.0642 88.2924 77.9322 88.5564 77.7154 88.7733C77.4325 89.0561 77.1497 89.2164 76.8668 89.2541C76.584 89.273 76.2634 89.2447 75.9052 89.1693L71.0686 88.2359ZM68.0563 90.9087L69.8523 89.1127L73.4727 92.7331C73.4256 92.8368 73.3313 92.9782 73.1899 93.1573C73.0673 93.3365 72.9212 93.5109 72.7515 93.6806C72.4121 94.02 72.1056 94.2039 71.8322 94.2321C71.5494 94.251 71.2571 94.1096 70.9554 93.8079L68.0563 90.9087ZM78.9096 73.0975L78.8389 73.1682C79.0557 73.6302 79.3056 74.1534 79.5884 74.738C79.8807 75.3131 80.1824 75.9165 80.4935 76.5482C80.7952 77.1704 81.0922 77.7691 81.3845 78.3442L82.0633 79.419C82.1859 79.6547 82.3226 79.914 82.4734 80.1968C82.6337 80.4703 82.7893 80.7578 82.9401 81.0595C83.091 81.3424 83.2324 81.6158 83.3644 81.8798C83.5058 82.1343 83.6284 82.3606 83.7321 82.5586C83.6661 82.6811 83.5859 82.8084 83.4916 82.9404C83.4162 83.0724 83.3031 83.2138 83.1522 83.3647C82.8505 83.6664 82.5536 83.8502 82.2613 83.9162C81.969 83.9634 81.705 83.8691 81.4693 83.6334C81.3656 83.5297 81.2713 83.4071 81.1865 83.2657C81.1111 83.1148 81.0215 82.9498 80.9178 82.7707C80.7009 82.3653 80.4417 81.8515 80.14 81.2292C79.8288 80.5975 79.4941 79.914 79.1359 79.1786C78.7776 78.4432 78.4193 77.6984 78.0611 76.9441C77.7122 76.1805 77.387 75.4687 77.0853 74.8087C76.7741 74.1393 76.5196 73.5736 76.3216 73.1116C76.3687 72.9325 76.4819 72.6968 76.661 72.4045C76.8401 72.1123 77.0523 71.8436 77.2974 71.5984C77.6179 71.2779 77.9574 71.0327 78.3156 70.863C78.6833 70.6839 79.0039 70.665 79.2773 70.8065C79.9938 71.127 80.7999 71.5089 81.6956 71.952C82.5913 72.3951 83.5199 72.8618 84.4816 73.352C85.4433 73.8423 86.3766 74.3231 87.2817 74.7945C88.1868 75.2659 89.0024 75.6949 89.7283 76.0815C89.7378 76.2795 89.6906 76.4963 89.5869 76.732C89.4926 76.9583 89.3371 77.1799 89.1202 77.3967C88.8091 77.7078 88.5262 77.8775 88.2717 77.9058C88.0171 77.9152 87.7296 77.8351 87.409 77.6654L84.9766 76.3926L83.8876 75.6714C83.2559 75.3414 82.6337 75.0208 82.0209 74.7097C81.408 74.3797 80.8329 74.078 80.2955 73.8046C79.7581 73.5312 79.2961 73.2955 78.9096 73.0975ZM81.6107 80.5504L80.8754 78.4856L84.4109 74.9501L86.0797 76.0815L81.6107 80.5504ZM88.2482 63.7589L86.7491 62.3447L90.723 58.3708C90.8362 58.3896 90.9776 58.4462 91.1473 58.5405C91.3076 58.6253 91.4584 58.7385 91.5998 58.8799C91.845 59.125 91.977 59.3701 91.9958 59.6153C92.0147 59.8604 91.9251 60.082 91.7271 60.28L88.2482 63.7589ZM88.0502 61.0436L89.5351 62.472L85.5611 66.4459C85.4386 66.4176 85.2972 66.3611 85.1369 66.2762C84.9766 66.1914 84.821 66.0735 84.6702 65.9227C84.4156 65.6681 84.2836 65.423 84.2742 65.1873C84.2648 64.9516 84.3591 64.7347 84.5571 64.5367L88.0502 61.0436ZM87.5835 63.6599L89.3654 61.878L96.8466 69.3592C96.7994 69.4629 96.7052 69.6043 96.5637 69.7835C96.4412 69.9626 96.2997 70.1323 96.1395 70.2926C95.7906 70.6414 95.4795 70.83 95.2061 70.8583C94.9327 70.8677 94.6451 70.7216 94.3434 70.4199L87.5835 63.6599ZM97.7243 57.1961L99.5062 55.4142L105.149 61.0569C105.102 61.1606 105.012 61.2973 104.88 61.467C104.758 61.6461 104.611 61.8206 104.442 61.9903C104.102 62.3297 103.796 62.5135 103.523 62.5418C103.24 62.5607 102.947 62.4193 102.646 62.1176L97.7243 57.1961ZM101.571 57.4789L99.789 59.2608L94.811 54.2828C94.8676 54.1885 94.9618 54.0471 95.0938 53.8585C95.2258 53.67 95.372 53.4956 95.5322 53.3353C95.8622 53.0053 96.1639 52.8262 96.4373 52.7979C96.7013 52.7602 96.9936 52.9016 97.3141 53.2221L101.571 57.4789ZM111.12 52.6536C111.667 52.1068 111.964 51.5929 112.011 51.1121C112.048 50.6218 111.902 50.2117 111.572 49.8817C111.28 49.5895 110.941 49.4575 110.554 49.4858C110.168 49.4952 109.706 49.646 109.168 49.9383L107.966 50.5747C107.334 50.8858 106.74 51.1215 106.184 51.2818C105.637 51.4327 105.109 51.4515 104.6 51.3384C104.091 51.2064 103.606 50.9094 103.144 50.4474C102.38 49.6837 102.059 48.7975 102.182 47.7887C102.314 46.7705 102.875 45.7664 103.865 44.7764C104.393 44.2484 104.916 43.8383 105.435 43.5461C105.953 43.2349 106.425 43.0558 106.849 43.0087C107.283 42.9521 107.627 43.0511 107.881 43.3056C108.06 43.4848 108.173 43.6922 108.221 43.9279C108.268 44.1447 108.268 44.3616 108.221 44.5784C107.843 44.635 107.41 44.7953 106.92 45.0593C106.42 45.3138 105.948 45.6627 105.505 46.1058C105.015 46.596 104.728 47.0627 104.643 47.5059C104.558 47.949 104.666 48.3214 104.968 48.6231C105.213 48.8682 105.501 48.9766 105.831 48.9484C106.17 48.9106 106.585 48.7598 107.075 48.4958L108.136 47.916C109.192 47.3503 110.158 47.0533 111.035 47.025C111.902 46.9873 112.699 47.3314 113.425 48.0574C114.198 48.8305 114.528 49.7545 114.415 50.8293C114.311 51.8946 113.712 52.9741 112.619 54.0678C112.044 54.6429 111.473 55.0908 110.908 55.4113C110.342 55.7319 109.819 55.9157 109.338 55.9629C108.866 56.0006 108.494 55.8827 108.221 55.6093C108.013 55.4019 107.9 55.1567 107.881 54.8739C107.862 54.5911 107.891 54.3365 107.966 54.1102C108.419 54.0725 108.928 53.95 109.493 53.7425C110.059 53.5351 110.601 53.1721 111.12 52.6536Z" fill="#F0F3FD"/>
</g>
<defs>
<filter id="filter0_i_83_120" x="138.028" y="26.9295" width="14.2195" height="17.7069" filterUnits="userSpaceOnUse" color-interpolation-filters="sRGB">
<feFlood flood-opacity="0" result="BackgroundImageFix"/>
<feBlend mode="normal" in="SourceGraphic" in2="BackgroundImageFix" result="shape"/>
<feColorMatrix in="SourceAlpha" type="matrix" values="0 0 0 0 0 0 0 0 0 0 0 0 0 0 0 0 0 0 127 0" result="hardAlpha"/>
<feOffset dy="4"/>
<feGaussianBlur stdDeviation="2"/>
<feComposite in2="hardAlpha" operator="arithmetic" k2="-1" k3="1"/>
<feColorMatrix type="matrix" values="0 0 0 0 0 0 0 0 0 0 0 0 0 0 0 0 0 0 0.25 0"/>
<feBlend mode="normal" in2="shape" result="effect1_innerShadow_83_120"/>
</filter>
<filter id="filter1_i_83_120" x="37.5" y="130.645" width="12.5" height="16.8547" filterUnits="userSpaceOnUse" color-interpolation-filters="sRGB">
<feFlood flood-opacity="0" result="BackgroundImageFix"/>
<feBlend mode="normal" in="SourceGraphic" in2="BackgroundImageFix" result="shape"/>
<feColorMatrix in="SourceAlpha" type="matrix" values="0 0 0 0 0 0 0 0 0 0 0 0 0 0 0 0 0 0 127 0" result="hardAlpha"/>
<feOffset dy="4"/>
<feGaussianBlur stdDeviation="2"/>
<feComposite in2="hardAlpha" operator="arithmetic" k2="-1" k3="1"/>
<feColorMatrix type="matrix" values="0 0 0 0 0 0 0 0 0 0 0 0 0 0 0 0 0 0 0.25 0"/>
<feBlend mode="normal" in2="shape" result="effect1_innerShadow_83_120"/>
</filter>
<filter id="filter2_di_83_120" x="33.4611" y="26.9295" width="122.75" height="124.571" filterUnits="userSpaceOnUse" color-interpolation-filters="sRGB">
<feFlood flood-opacity="0" result="BackgroundImageFix"/>
<feColorMatrix in="SourceAlpha" type="matrix" values="0 0 0 0 0 0 0 0 0 0 0 0 0 0 0 0 0 0 127 0" result="hardAlpha"/>
<feOffset dy="4"/>
<feGaussianBlur stdDeviation="2"/>
<feComposite in2="hardAlpha" operator="out"/>
<feColorMatrix type="matrix" values="0 0 0 0 0 0 0 0 0 0 0 0 0 0 0 0 0 0 0.25 0"/>
<feBlend mode="normal" in2="BackgroundImageFix" result="effect1_dropShadow_83_120"/>
<feBlend mode="normal" in="SourceGraphic" in2="effect1_dropShadow_83_120" result="shape"/>
<feColorMatrix in="SourceAlpha" type="matrix" values="0 0 0 0 0 0 0 0 0 0 0 0 0 0 0 0 0 0 127 0" result="hardAlpha"/>
<feOffset/>
<feGaussianBlur stdDeviation="10"/>
<feComposite in2="hardAlpha" operator="arithmetic" k2="-1" k3="1"/>
<feColorMatrix type="matrix" values="0 0 0 0 0.01125 0 0 0 0 0.0148 0 0 0 0 0.1 0 0 0 0.5 0"/>
<feBlend mode="normal" in2="shape" result="effect2_innerShadow_83_120"/>
</filter>
<filter id="filter3_d_83_120" x="40.7552" y="31.6369" width="95.2719" height="95.2718" filterUnits="userSpaceOnUse" color-interpolation-filters="sRGB">
<feFlood flood-opacity="0" result="BackgroundImageFix"/>
<feColorMatrix in="SourceAlpha" type="matrix" values="0 0 0 0 0 0 0 0 0 0 0 0 0 0 0 0 0 0 127 0" result="hardAlpha"/>
<feMorphology radius="5" operator="dilate" in="SourceAlpha" result="effect1_dropShadow_83_120"/>
<feOffset dx="5" dy="5"/>
<feGaussianBlur stdDeviation="5"/>
<feComposite in2="hardAlpha" operator="out"/>
<feColorMatrix type="matrix" values="0 0 0 0 0.01125 0 0 0 0 0.0148 0 0 0 0 0.1 0 0 0 0.2 0"/>
<feBlend mode="normal" in2="BackgroundImageFix" result="effect1_dropShadow_83_120"/>
<feBlend mode="normal" in="SourceGraphic" in2="effect1_dropShadow_83_120" result="shape"/>
</filter>
</defs>
</svg>
